<svg width="32" height="32" viewBox="0 0 32 32" fill="none" xmlns="http://www.w3.org/2000/svg">
<path d="M4 9.33335C4 5.33335 6 2.66669 10.6667 2.66669H21.3333C26 2.66669 28 5.33335 28 9.33335V22.6667C28 26.6667 26 29.3334 21.3333 29.3334H10.6667C6 29.3334 4 26.6667 4 22.6667V14.6934" stroke="url(#paint0_linear_8_29)" stroke-width="1.5" stroke-miterlimit="10" stroke-linecap="round" stroke-linejoin="round"/>
<path d="M19.3333 6V8.66667C19.3333 10.1333 20.5333 11.3333 22 11.3333H24.6666" stroke="url(#paint1_linear_8_29)" stroke-width="1.5" stroke-miterlimit="10" stroke-linecap="round" stroke-linejoin="round"/>
<path d="M10.6667 17.3333H16" stroke="url(#paint2_linear_8_29)" stroke-width="1.5" stroke-miterlimit="10" stroke-linecap="round" stroke-linejoin="round"/>
<path d="M10.6667 22.6667H21.3334" stroke="url(#paint3_linear_8_29)" stroke-width="1.5" stroke-miterlimit="10" stroke-linecap="round" stroke-linejoin="round"/>
<defs>
<linearGradient id="paint0_linear_8_29" x1="16" y1="2.66669" x2="16" y2="29.3334" gradientUnits="userSpaceOnUse">
<stop stop-color="#5221E6"/>
<stop offset="1" stop-color="#E95D90"/>
</linearGradient>
<linearGradient id="paint1_linear_8_29" x1="22" y1="6" x2="22" y2="11.3333" gradientUnits="userSpaceOnUse">
<stop stop-color="#5221E6"/>
<stop offset="1" stop-color="#E95D90"/>
</linearGradient>
<linearGradient id="paint2_linear_8_29" x1="13.3334" y1="17.3333" x2="13.3334" y2="18.3333" gradientUnits="userSpaceOnUse">
<stop stop-color="#5221E6"/>
<stop offset="1" stop-color="#E95D90"/>
</linearGradient>
<linearGradient id="paint3_linear_8_29" x1="16" y1="22.6667" x2="16" y2="23.6667" gradientUnits="userSpaceOnUse">
<stop stop-color="#5221E6"/>
<stop offset="1" stop-color="#E95D90"/>
</linearGradient>
</defs>
</svg>
