<svg width="81" height="34" viewBox="0 0 81 34" fill="none" xmlns="http://www.w3.org/2000/svg">
<path d="M9.072 26.568C9.664 25.992 9.92 25.304 9.92 24.568C9.92 22.376 8.464 21.08 6 21.08H0.96V33H6C8.768 33 10.416 31.64 10.416 29.288C10.416 28.248 10.128 27.288 9.072 26.568ZM3.44 23.16H6.176C6.944 23.16 7.44 23.64 7.44 24.36C7.44 25.08 6.944 25.56 6.176 25.56H3.44V23.16ZM6.288 30.84H3.44V27.72H6.288C7.28 27.72 7.936 28.344 7.936 29.288C7.936 30.216 7.28 30.84 6.288 30.84ZM18.2346 21.08H14.9546L10.8906 33H13.5146L14.3146 30.568H18.8746L19.6746 33H22.2986L18.2346 21.08ZM15.0186 28.408L16.6026 23.576L18.1706 28.408H15.0186ZM23.2531 33H31.0931V30.84H25.7331V21.08H23.2531V33ZM37.9056 33.192C41.5056 33.192 44.2256 30.536 44.2256 27.032C44.2256 23.528 41.5216 20.888 37.9056 20.888C34.2896 20.888 31.5856 23.528 31.5856 27.032C31.5856 30.536 34.3056 33.192 37.9056 33.192ZM37.9056 30.952C35.7296 30.952 34.0656 29.336 34.0656 27.032C34.0656 24.728 35.7296 23.128 37.9056 23.128C40.0816 23.128 41.7456 24.728 41.7456 27.032C41.7456 29.336 40.0816 30.952 37.9056 30.952ZM51.4473 33.192C54.4393 33.192 56.2793 31.592 56.7593 29.64V26.28H51.4793V28.44H54.3593V29.48C54.0553 30.2 53.1113 30.952 51.4473 30.952C49.1753 30.952 47.7513 29.368 47.7513 27.032C47.7513 24.712 49.1753 23.128 51.2873 23.128C52.7273 23.128 53.7833 23.976 54.1993 25.128L56.3913 24.072C55.7673 22.312 53.8633 20.888 51.2873 20.888C47.8313 20.888 45.2713 23.48 45.2713 27.032C45.2713 30.568 47.8633 33.192 51.4473 33.192ZM65.4025 21.08V28.472C65.4025 29.96 64.4425 30.952 63.0025 30.952C61.5625 30.952 60.6025 29.96 60.6025 28.472V21.08H58.1225V28.472C58.1225 31.144 60.0745 33.192 63.0025 33.192C65.9305 33.192 67.8825 31.144 67.8825 28.472V21.08H65.4025ZM77.01 21.08V28.248L71.634 21.08H69.73V33H72.21V25.784L77.57 33H79.49V21.08H77.01Z" fill="white"/>
<path d="M7.424 3.08H4.144L0.08 15H2.704L3.504 12.568H8.064L8.864 15H11.488L7.424 3.08ZM4.208 10.408L5.792 5.576L7.36 10.408H4.208ZM20.5495 3.08L18.1335 7.32L15.7015 3.08H12.9175L16.9015 9.8V15H19.3815V9.784L23.3335 3.08H20.5495ZM32.2112 15.192C35.8112 15.192 38.5312 12.536 38.5312 9.032C38.5312 5.528 35.8272 2.888 32.2112 2.888C28.5952 2.888 25.8912 5.528 25.8912 9.032C25.8912 12.536 28.6112 15.192 32.2112 15.192ZM32.2112 12.952C30.0352 12.952 28.3712 11.336 28.3712 9.032C28.3712 6.728 30.0352 5.128 32.2112 5.128C34.3872 5.128 36.0512 6.728 36.0512 9.032C36.0512 11.336 34.3872 12.952 32.2112 12.952ZM42.4569 15H46.3449C50.2009 15 52.6969 12.488 52.6969 9.032C52.6969 5.576 50.2169 3.08 46.3449 3.08H42.4569V15ZM44.9369 12.84V5.24H46.4089C48.7289 5.24 50.2169 6.712 50.2169 9.032C50.2169 11.352 48.7289 12.84 46.4089 12.84H44.9369ZM56.6225 15H64.6225L64.6385 12.84H59.1025V10.104H64.3185V7.944H59.1025V5.24H64.6385V3.08H56.6225V15ZM67.8319 15H68.6319C71.1279 15 72.7119 13.464 72.7119 11.16V3.08H70.2319V11.272C70.2319 12.168 69.5919 12.76 68.6319 12.76H67.8319V15ZM77.0319 15H79.5119V3.08H77.0319V15Z" fill="white"/>
</svg>
